<svg width="133.72" height="29" viewBox="0 0 166 36" fill="none" xmlns="http://www.w3.org/2000/svg" role="img">
    <title>Q-SYS logo</title>
    <path d="M28.218 21.56l5.033 2.824v-12.37c0-2.177-1.191-4.148-3.08-5.248L19.694.796a6.346 6.346 0 00-6.147 0L3.068 6.766C1.19 7.866 0 9.836 0 12.013v11.983c0 2.129 1.191 4.129 3.068 5.229l10.478 5.97a6.285 6.285 0 006.147 0l10.86-6.2-4.742-2.694-.673-.376-7.81 4.435c-.44.277-.982.277-1.453 0l-9.728-5.564c-.47-.23-.75-.694-.75-1.23V12.45c0-.536.28-1 .75-1.277l9.734-5.535c.47-.26 1.013-.26 1.453 0l9.776 5.535c.47.276.732.741.732 1.276v8.871l.382.247-.006-.006z" fill="#72ACDA"></path>
    <path d="M22.678 15.813l-.036 4.477a2.068 2.068 0 01-.989 1.676l-3.896 2.306a2.555 2.555 0 01-1.132.282c-.387 0-.78-.105-1.131-.282l-3.789-2.2a2.152 2.152 0 01-1.132-1.888l.036-4.477c.036-.7.387-1.294.989-1.676l4.003-2.306a2.148 2.148 0 011.024-.282c.388 0 .78.106 1.132.282l3.789 2.2a2.151 2.151 0 011.132 1.888z" fill="#1A7AB9"></path>
    <path d="M84.135 18.784h-6.279v1.835h6.279v-1.835zM108.326 17.23c-1.174-.64-2.979-.952-5.516-.952h-7.518c-4.17 0-4.366-.741-4.366-2.159 0-1.147.357-1.723 1.28-2.047.965-.341 2.52-.406 5.058-.406h2.698c6.672 0 6.678.447 6.726 2.612v.288h2.984v-.83c0-1.617-.53-2.64-1.728-3.323-1.25-.712-3.3-1.047-6.451-1.047h-5.468c-5.117 0-8.078.753-8.078 4.606 0 2.194.727 3.406 2.43 4.053 1.603.606 4.105.724 8.162.724h4.819c3.246 0 3.794.535 3.794 2.135 0 1.806-.619 2.559-4.467 2.559h-7.881c-3.205 0-3.849-.742-3.849-1.942V20.12h-2.984v1.43c0 3.7 3.675 4.2 7.273 4.2h7.053c1.764 0 3.771-.048 5.29-.636 1.698-.653 2.556-1.906 2.556-3.735v-1c0-1.447-.59-2.477-1.811-3.141M124.326 16.613l-8.494-7.07h-4.355l11.282 9.347v6.688h3.14V18.89l11.282-9.347h-4.355l-8.5 7.07zM158.906 17.23c-1.174-.64-2.979-.952-5.516-.952h-7.518c-4.17 0-4.366-.741-4.366-2.159 0-1.959.744-2.453 6.338-2.453h2.698c6.672 0 6.678.447 6.726 2.612v.288h2.984v-.83c0-1.617-.53-2.64-1.727-3.323-1.251-.712-3.301-1.047-6.452-1.047h-5.468c-5.117 0-8.078.753-8.078 4.606 0 2.194.727 3.406 2.431 4.053 1.602.606 4.104.724 8.161.724h4.819c3.246 0 3.794.535 3.794 2.135 0 1.806-.619 2.559-4.467 2.559h-7.881c-3.205 0-3.848-.742-3.848-1.942V20.12h-2.985v1.43c0 3.7 3.676 4.2 7.274 4.2h7.052c1.764 0 3.771-.048 5.29-.636 1.692-.653 2.556-1.906 2.556-3.735v-1c0-1.447-.59-2.477-1.811-3.141M65.74 21.93h-3.002v5.677h3.002v-5.676z" fill="var(--logo-text-color, #606161)"></path>
    <path d="M66.056 9.372H55.244c-4.962 0-6.987 1.759-6.987 6.076v4.224c0 4.318 2.025 6.076 6.987 6.076h5.993v-2.3H55.5c-2.877 0-4.104-.894-4.104-2.988v-5.8c0-2.094 1.227-2.988 4.104-2.988h10.294c2.877 0 4.104.894 4.104 2.988v5.8c0 1.63-.768 2.536-2.418 2.853l-.245.047v2.347l.328-.03c2.001-.181 3.395-.764 4.271-1.781.822-.96 1.21-2.3 1.21-4.224v-4.224c0-4.317-2.026-6.076-6.988-6.076M165.494 9.613l-.518 1.665-.537-1.665h-.506v2.106h.363l-.011-1.3-.03-.423.107.347.435 1.376h.333l.429-1.37.108-.36-.018.43-.012 1.3H166V9.613h-.506zM162.021 9.925h.685v1.794h.375V9.925h.673v-.312h-1.733v.312z" fill="var(--logo-text-color, #606161)"></path>
</svg>
